<svg width="30" height="30" viewBox="0 0 30 30" fill="none" xmlns="http://www.w3.org/2000/svg">
<path d="M25.6066 4.39336C22.7735 1.56023 19.0066 0 15 0C10.9934 0 7.22654 1.56023 4.39336 4.39336C1.56018 7.22648 0 10.9934 0 15C0 19.0066 1.56023 22.7735 4.39336 25.6066C7.22648 28.4398 10.9934 30 15 30C19.0066 30 22.7735 28.4398 25.6066 25.6066C28.4398 22.7735 30 19.0066 30 15C30 10.9934 28.4398 7.22654 25.6066 4.39336ZM15.0012 25.3125C14.4834 25.3125 14.0634 24.8927 14.0634 24.375C14.0634 23.8573 14.4828 23.4375 15.0006 23.4375H15.0012C15.5189 23.4375 15.9387 23.8573 15.9387 24.375C15.9387 24.8927 15.5189 25.3125 15.0012 25.3125ZM17.9831 15.6864C16.6639 17.0056 15.9375 18.7595 15.9375 20.625C15.9375 21.1427 15.5177 21.5625 15 21.5625C14.4823 21.5625 14.0625 21.1427 14.0625 20.625C14.0625 18.2586 14.984 16.0339 16.6573 14.3606C17.7045 13.3134 18.2812 11.9211 18.2812 10.4401C18.2812 8.81889 16.9624 7.5 15.3412 7.5H15.1276C13.5064 7.5 12.1875 8.81889 12.1875 10.4401V10.7812C12.1875 11.299 11.7677 11.7188 11.25 11.7188C10.7323 11.7188 10.3125 11.299 10.3125 10.7812V10.4401C10.3125 7.785 12.4725 5.625 15.1276 5.625H15.3412C17.9963 5.625 20.1562 7.785 20.1562 10.4401C20.1562 12.4219 19.3845 14.2851 17.9831 15.6864Z" fill="#03A438"/>
</svg>
