<svg width="30" height="30" viewBox="0 0 30 30" fill="none" xmlns="http://www.w3.org/2000/svg">
<path d="M27.3633 12.3633C26.2189 12.3633 25.2525 13.1003 24.8885 14.1211H22.8213C22.6505 12.603 22.0605 11.2249 21.1528 10.0901L22.5836 8.65928C23.7128 9.19172 24.833 8.89547 25.5649 8.16363C26.5931 7.13537 26.5931 5.4634 25.5649 4.43514C24.5366 3.40688 22.8646 3.40688 21.8364 4.43514C21.0284 5.24314 20.8789 6.43822 21.3407 7.41645L19.9099 8.84725C18.7751 7.93945 17.397 7.34947 15.8789 7.17867V5.11154C16.8997 4.7475 17.6367 3.78105 17.6367 2.63672C17.6367 1.18277 16.4539 0 15 0C13.5461 0 12.3633 1.18277 12.3633 2.63672C12.3633 3.78105 13.1003 4.7475 14.1211 5.11154V7.17867C12.603 7.34947 11.2249 7.93945 10.0901 8.84725L8.65928 7.41645C9.12105 6.43816 8.97158 5.24309 8.16363 4.43514C7.13537 3.40688 5.4634 3.40688 4.43514 4.43514C3.40688 5.4634 3.40688 7.13537 4.43514 8.16363C5.16697 8.89547 6.28723 9.19172 7.41645 8.65928L8.84725 10.0901C7.93945 11.2249 7.34947 12.603 7.17867 14.1211H5.11154C4.7475 13.1003 3.78105 12.3633 2.63672 12.3633C1.18277 12.3633 0 13.5461 0 15C0 16.4539 1.18277 17.6367 2.63672 17.6367C3.78105 17.6367 4.7475 16.8997 5.11154 15.8789H7.17867C7.34947 17.397 7.93945 18.7751 8.84725 19.9099L7.41645 21.3407C6.43816 20.8791 5.24297 21.0285 4.43514 21.8364C3.40688 22.8646 3.40688 24.5366 4.43514 25.5649C5.4634 26.5931 7.13531 26.5931 8.16363 25.5649C8.97152 24.757 9.121 23.5618 8.65928 22.5836L10.0901 21.1528C11.2249 22.0605 12.6031 22.6505 14.1211 22.8213V24.8885C13.1003 25.2525 12.3633 26.2189 12.3633 27.3633C12.3633 28.8172 13.5461 30 15 30C16.4539 30 17.6367 28.8172 17.6367 27.3633C17.6367 26.2189 16.8997 25.2525 15.8789 24.8885V22.8213C17.397 22.6505 18.7751 22.0605 19.9099 21.1528L21.3407 22.5836C20.8791 23.5618 21.0285 24.757 21.8364 25.5649C22.8646 26.5931 24.5365 26.5931 25.5649 25.5649C26.5931 24.5366 26.5931 22.8646 25.5649 21.8364C24.7569 21.0284 23.5618 20.8789 22.5836 21.3407L21.1528 19.9099C22.0605 18.7751 22.6505 17.3969 22.8213 15.8789H24.8885C25.2525 16.8997 26.2189 17.6367 27.3633 17.6367C28.8172 17.6367 30 16.4539 30 15C30 13.5461 28.8172 12.3633 27.3633 12.3633ZM18.7794 19.8164C17.9739 18.4071 16.4978 17.6367 15 17.6367C13.5086 17.6367 12.1725 18.2773 11.2383 19.834C10.7637 19.4648 10.3243 19.0253 9.97272 18.5332C10.7404 17.6118 10.9569 17.1497 12.3985 16.459C11.8359 15.8437 11.4844 15.0176 11.4844 14.1211C11.4844 12.1876 13.0665 10.6055 15 10.6055C16.9335 10.6055 18.5156 12.1876 18.5156 14.1211C18.5156 15.0176 18.1641 15.8437 17.6015 16.459C18.5505 16.9005 19.4555 17.6173 20.0273 18.5156C19.6933 19.0079 19.2538 19.4297 18.7794 19.8164Z" fill="#03A438"/>
<path d="M15 12.3633C14.0332 12.3633 13.2422 13.1543 13.2422 14.1211C13.2422 15.0879 14.0332 15.8789 15 15.8789C15.9668 15.8789 16.7578 15.0879 16.7578 14.1211C16.7578 13.1543 15.9668 12.3633 15 12.3633Z" fill="#03A438"/>
</svg>
