<svg width="24" height="24" viewBox="0 0 24 24" fill="none" xmlns="http://www.w3.org/2000/svg">
<g clip-path="url(#clip0)">
<path d="M23.641 14.9021C22.0377 21.3341 15.521 25.244 9.09824 23.6406C2.66605 22.0373 -1.24389 15.5209 0.359518 9.09818C1.96283 2.66618 8.47002 -1.24376 14.9022 0.359649C21.325 1.95359 25.2444 8.46996 23.641 14.9021Z" fill="url(#paint0_linear)"/>
<path d="M23.641 14.9021C22.0377 21.3341 15.521 25.244 9.09824 23.6406C2.66605 22.0373 -1.24389 15.5209 0.359518 9.09819C1.96283 2.66619 8.47002 -1.24375 14.9022 0.359656C21.325 1.95359 25.2444 8.46997 23.641 14.9021Z" fill="url(#paint1_linear)"/>
<path d="M17.7131 10.5047C17.9475 8.91093 16.7381 8.04843 15.0693 7.47656L15.6131 5.31093L14.3006 4.98281L13.7756 7.09218C13.4287 7.00781 13.0725 6.92343 12.7162 6.84843L13.2412 4.72968L11.9287 4.40156L11.3943 6.55781C11.1037 6.49218 10.8225 6.42656 10.5506 6.36093V6.35156L8.73184 5.90156L8.38496 7.30781C8.38496 7.30781 9.35996 7.53281 9.34121 7.54218C9.87559 7.67343 9.96934 8.02968 9.95059 8.31093L9.33184 10.7766C9.36934 10.7859 9.41621 10.7953 9.47246 10.8234C9.42559 10.8141 9.37871 10.8047 9.33184 10.7859L8.46934 14.2359C8.40371 14.3953 8.23496 14.6391 7.86934 14.5453C7.87871 14.5641 6.91309 14.3109 6.91309 14.3109L6.25684 15.8203L7.97246 16.2516C8.29121 16.3359 8.60059 16.4109 8.90996 16.4953L8.36621 18.6797L9.67871 19.0078L10.2225 16.8422C10.5787 16.9359 10.935 17.0297 11.2725 17.1141L10.7381 19.2703L12.0506 19.5984L12.5943 17.4141C14.8443 17.8359 16.5318 17.6672 17.235 15.6328C17.8068 14.0016 17.2068 13.0547 16.0256 12.4359C16.8975 12.2391 17.5443 11.6672 17.7131 10.5047ZM14.7037 14.7234C14.3006 16.3547 11.5443 15.4734 10.6537 15.2484L11.3756 12.3516C12.2662 12.5766 15.135 13.0172 14.7037 14.7234ZM15.1162 10.4766C14.7412 11.9672 12.4537 11.2078 11.7131 11.0203L12.3693 8.39531C13.11 8.58281 15.5006 8.92968 15.1162 10.4766Z" fill="white"/>
</g>
<defs>
<linearGradient id="paint0_linear" x1="11.9935" y1="-0.00563029" x2="11.9935" y2="23.9977" gradientUnits="userSpaceOnUse">
<stop stop-color="#F9AA4B"/>
<stop offset="1" stop-color="#F7931A"/>
</linearGradient>
<linearGradient id="paint1_linear" x1="11.9935" y1="-0.00562267" x2="11.9935" y2="23.9977" gradientUnits="userSpaceOnUse">
<stop stop-color="#F9AA4B"/>
<stop offset="1" stop-color="#F7931A"/>
</linearGradient>
<clipPath id="clip0">
<rect width="24" height="24" fill="white"/>
</clipPath>
</defs>
</svg>
