<svg width="30" height="30" viewBox="0 0 30 30" fill="none" xmlns="http://www.w3.org/2000/svg">
<g clip-path="url(#clip0)">
<path d="M29.8795 11.8602L24.5475 2.77454C24.303 2.35799 23.7682 2.21672 23.35 2.45825L20.1544 4.30319L17.2761 3.24446C17.1701 3.20549 17.0629 3.1728 16.9548 3.14532C16.1443 2.9393 15.2853 3.05491 14.5523 3.47813L9.79431 6.22518C8.74337 6.83192 8.38331 8.17577 8.99005 9.2267C9.59679 10.2776 10.9406 10.6377 11.9916 10.031L17.2127 7.01649C17.7566 6.70249 18.4266 6.70249 18.9705 7.01649C18.9705 7.01649 29.4897 13.0918 29.5234 13.1126L29.6801 12.9836C30.0137 12.709 30.0982 12.2328 29.8795 11.8602Z" fill="#03A438"/>
<path d="M28.5424 14.5728L18.0911 8.5388L12.87 11.5532C12.2606 11.9051 11.5842 12.0848 10.8989 12.0848C10.5553 12.0848 10.2095 12.0396 9.86881 11.9484C8.84835 11.6749 7.9954 11.0205 7.46723 10.1055C6.93901 9.19072 6.79874 8.12484 7.07219 7.10437C7.2979 6.26191 7.78387 5.53423 8.46116 5.00859L6.3062 3.76441C5.87653 3.51632 5.32674 3.67288 5.09219 4.11011L0.104518 13.4091C-0.119837 13.8274 0.0284633 14.3483 0.439616 14.5856L0.896471 14.8493L1.69833 13.4604C2.36354 12.3082 3.6038 11.5924 4.93505 11.5924C5.58825 11.5924 6.23348 11.7656 6.8009 12.0932C7.12733 12.2817 7.41848 12.5139 7.6685 12.7819C8.07262 12.6343 8.50428 12.5551 8.9462 12.5551C9.5994 12.5551 10.2446 12.7282 10.8121 13.0559C11.6761 13.5547 12.2942 14.3602 12.5524 15.324C12.5808 15.43 12.6036 15.5365 12.6226 15.6432C12.982 15.7263 13.3292 15.8623 13.6513 16.0483C14.5154 16.5471 15.1335 17.3526 15.3917 18.3164C15.4201 18.4224 15.4429 18.5289 15.4619 18.6357C15.8213 18.7187 16.1684 18.8547 16.4905 19.0407C18.2742 20.0706 18.8876 22.3596 17.8578 24.1433L16.7629 26.0397L19.1099 27.3947C20.0557 27.9408 21.2651 27.6168 21.8112 26.6709C22.3573 25.7251 22.0332 24.5156 21.0874 23.9695L22.6097 24.8484C23.5556 25.3945 24.765 25.0704 25.3111 24.1246C25.8572 23.1788 25.5331 21.9693 24.5873 21.4232L25.6022 22.0092C26.548 22.5552 27.7575 22.2312 28.3035 21.2853C28.8496 20.3395 28.5255 19.13 27.5797 18.5839L26.5648 17.998C27.5106 18.5441 28.7201 18.22 29.2662 17.2741C29.8123 16.3283 29.4882 15.1189 28.5424 14.5728Z" fill="#03A438"/>
<path d="M15.6113 20.5634C14.6655 20.0173 13.456 20.3414 12.9099 21.2872L13.4959 20.2723C14.042 19.3265 13.7179 18.1171 12.7721 17.571C11.8263 17.0249 10.6168 17.349 10.0707 18.2948L10.6567 17.2799C11.2028 16.3341 10.8787 15.1246 9.93285 14.5786C8.98703 14.0325 7.7776 14.3565 7.23151 15.3024L6.64557 16.3172C7.1916 15.3714 6.86758 14.162 5.9217 13.6159C4.97588 13.0698 3.76645 13.3938 3.22035 14.3397L1.09633 18.0186C0.550237 18.9644 0.874319 20.1739 1.82014 20.7199C2.76596 21.266 3.97545 20.9419 4.52149 19.9961C3.97539 20.9419 4.29947 22.1514 5.2453 22.6974C6.19112 23.2435 7.40061 22.9194 7.94664 21.9735C7.40055 22.9194 7.72463 24.1289 8.67051 24.6749C9.61633 25.221 10.8258 24.8969 11.3719 23.951C10.8258 24.8968 11.1498 26.1063 12.0957 26.6524C13.0415 27.1985 14.251 26.8744 14.797 25.9285L16.3351 23.2645C16.8813 22.3189 16.5572 21.1094 15.6113 20.5634Z" fill="#03A438"/>
</g>
<defs>
<clipPath id="clip0">
<rect width="30" height="30" fill="white"/>
</clipPath>
</defs>
</svg>
