<svg width="30" height="30" viewBox="0 0 30 30" fill="none" xmlns="http://www.w3.org/2000/svg">
<path d="M20.5664 0.514648V5.85916H25.9109L20.5664 0.514648Z" fill="#03A438"/>
<path d="M16.8091 11.25H13.1909C12.5061 12.4455 11.3497 13.2608 10.0195 13.5119V17.7304C10.0195 20.9094 12.01 23.6709 15 24.6831C17.99 23.6709 19.9805 20.9094 19.9805 17.7304V13.5119C18.6503 13.2608 17.4939 12.4454 16.8091 11.25ZM18.1074 16.9525L14.7929 20.267C14.6212 20.4386 14.3963 20.5245 14.1714 20.5245C13.9465 20.5245 13.7215 20.4387 13.55 20.267L11.8927 18.6097C11.5495 18.2665 11.5495 17.71 11.8927 17.3668C12.2359 17.0235 12.7924 17.0235 13.1357 17.3668L14.1715 18.4025L16.8646 15.7095C17.2078 15.3663 17.7643 15.3663 18.1075 15.7095C18.4506 16.0528 18.4506 16.6092 18.1074 16.9525Z" fill="#03A438"/>
<path d="M19.6875 7.61719C19.2021 7.61719 18.8086 7.22367 18.8086 6.73828V0H6.79688C5.0199 0 3.57422 1.44568 3.57422 3.22266V26.7773C3.57422 28.5543 5.0199 30 6.79688 30H23.2031C24.9801 30 26.4258 28.5543 26.4258 26.7773V7.61719H19.6875ZM21.7383 17.7303C21.7383 19.7022 21.1161 21.5808 19.939 23.1629C18.7619 24.7449 17.1413 25.8807 15.2525 26.4473C15.1702 26.472 15.0851 26.4844 15 26.4844C14.9149 26.4844 14.8298 26.472 14.7475 26.4473C12.8587 25.8807 11.2381 24.7449 10.061 23.1629C8.88393 21.5808 8.26172 19.7022 8.26172 17.7303V12.7148C8.26172 12.2295 8.65523 11.8359 9.14062 11.8359C10.2513 11.8359 11.2498 11.2188 11.7464 10.2255L11.8701 9.97811C12.019 9.68027 12.3233 9.49219 12.6562 9.49219H17.3438C17.6767 9.49219 17.981 9.68027 18.1299 9.97805L18.2536 10.2255C18.7502 11.2188 19.7487 11.8359 20.8594 11.8359C21.3448 11.8359 21.7383 12.2295 21.7383 12.7148V17.7303Z" fill="#03A438"/>
</svg>
